<?xml version="1.0" encoding="UTF-8" standalone="no"?>
<!-- Created with Inkscape (http://www.inkscape.org/) -->

<svg
   width="210mm"
   height="297mm"
   viewBox="0 0 210 297"
   version="1.1"
   id="svg1"
   xml:space="preserve"
   inkscape:version="1.4.2 (ebf0e940, 2025-05-08)"
   sodipodi:docname="logo-letters.svg"
   xmlns:inkscape="http://www.inkscape.org/namespaces/inkscape"
   xmlns:sodipodi="http://sodipodi.sourceforge.net/DTD/sodipodi-0.dtd"
   xmlns="http://www.w3.org/2000/svg"
   xmlns:svg="http://www.w3.org/2000/svg"><sodipodi:namedview
     id="namedview1"
     pagecolor="#ffffff"
     bordercolor="#000000"
     borderopacity="0.25"
     inkscape:showpageshadow="2"
     inkscape:pageopacity="0.0"
     inkscape:pagecheckerboard="0"
     inkscape:deskcolor="#d1d1d1"
     inkscape:document-units="mm"
     inkscape:zoom="4.4139963"
     inkscape:cx="673.42602"
     inkscape:cy="636.15821"
     inkscape:window-width="2560"
     inkscape:window-height="1387"
     inkscape:window-x="2117"
     inkscape:window-y="69"
     inkscape:window-maximized="0"
     inkscape:current-layer="layer1" /><defs
     id="defs1" /><g
     inkscape:label="Layer 1"
     inkscape:groupmode="layer"
     id="layer1"><path
       class="st0"
       d="m 194.21409,146.98927 h -6.19125 c -1.42875,0 -2.56646,1.16416 -2.56646,2.56646 v 2.03729 h -3.175 c -0.50271,-2.61938 -2.80458,-4.60375 -5.58271,-4.60375 -2.75166,0 -5.08,1.98437 -5.5827,4.60375 h -3.67771 l 1.00541,-1.74625 c 0.34396,-0.60854 0.34396,-1.32292 0,-1.905 -0.34395,-0.60854 -0.9525,-0.9525 -1.66687,-0.9525 h -8.67833 c -0.68792,0 -1.29646,0.34396 -1.66688,0.9525 -0.34396,0.60854 -0.34396,1.32291 0,1.905 l 4.33917,7.54062 c 0.34396,0.60854 0.9525,0.9525 1.66687,0.9525 v 0 c 0.68792,0 1.29646,-0.34396 1.66688,-0.9525 l 2.11666,-3.65125 h 4.8948 c 0.5027,2.61938 2.80458,4.60375 5.5827,4.60375 2.75167,0 5.08,-1.98437 5.58271,-4.60375 h 3.175 v 2.03729 c 0,1.42875 1.16417,2.56646 2.56646,2.56646 h 6.19125 c 1.42875,0 2.56646,-1.16416 2.56646,-2.56646 v -6.19125 c 0,-1.42875 -1.16417,-2.59291 -2.56646,-2.59291 z"
       id="path1"
       style="stroke-width:0.264583" /><polygon
       class="st1"
       points="36.2,60.7 41.2,52 46.2,60.7 56.5,42.8 46.5,42.8 35.9,42.8 25.9,42.8 "
       id="polygon12"
       transform="matrix(0.26458333,0,0,0.26458333,151.5368,137.75531)" /><path
       class="st0"
       d="m 162.43763,150.05843 c 0.55563,0 1.00542,0.29105 1.27,0.74084 l 0.42334,-0.23813 c -0.34396,-0.58208 -0.97896,-0.97896 -1.69334,-0.97896 -0.71437,0 -1.34937,0.39688 -1.69333,0.97896 l 0.42333,0.23813 c 0.23813,-0.44979 0.71438,-0.74084 1.27,-0.74084 z"
       id="path13"
       style="stroke-width:0.264583" /><path
       class="st0"
       d="m 162.43763,151.03739 c 0.18521,0 0.34396,0.10584 0.42334,0.23813 l 0.42333,-0.23813 c -0.15875,-0.29104 -0.47625,-0.50271 -0.84667,-0.50271 -0.37041,0 -0.66146,0.21167 -0.84666,0.50271 l 0.42333,0.23813 c 0.0794,-0.13229 0.23812,-0.23813 0.42333,-0.23813 z"
       id="path14"
       style="stroke-width:0.264583" /><path
       class="st1"
       d="m 180.05888,153.94781 v 0 l -0.60854,-0.23813 c 0.10583,-0.3175 0.18521,-0.66145 0.18521,-1.00541 v 0 h 0.66146 c 0,-0.15875 -0.0265,-0.29104 -0.0265,-0.44979 0,-0.0529 0,-0.10584 -0.0265,-0.18521 -0.0265,-0.21167 -0.10583,-0.42334 -0.15875,-0.60854 l -0.52917,0.1852 -0.0794,0.0265 c -0.0794,-0.18521 -0.15875,-0.37041 -0.26458,-0.55562 -0.0794,-0.10584 -0.15875,-0.23813 -0.23813,-0.34396 l 0.50271,-0.42333 c -0.13229,-0.15875 -0.29104,-0.3175 -0.44979,-0.4498 -0.15875,-0.13229 -0.34396,-0.26458 -0.50271,-0.37041 l -0.3175,0.58208 c -0.13229,-0.0794 -0.26458,-0.13229 -0.39688,-0.18521 -0.1852,-0.0794 -0.37041,-0.13229 -0.55562,-0.15875 l 0.10583,-0.66146 c -0.26458,0.0529 -0.47625,0.0265 -0.68791,0.0265 -0.0529,0 -0.10584,0 -0.15875,0 -0.15875,0 -0.3175,0.0265 -0.4498,0.0529 l 0.10584,0.66146 v 0 c -0.34396,0.0529 -0.66146,0.18521 -0.9525,0.34396 l -0.3175,-0.58209 c -0.37042,0.21167 -0.68792,0.47625 -0.9525,0.79375 l 0.50271,0.42334 c -0.21167,0.26458 -0.39688,0.55562 -0.50271,0.87312 l -0.60854,-0.23812 v 0 0 c -0.0529,0.1852 -0.10584,0.37041 -0.15875,0.55562 0,0.0265 0,0.0529 -0.0265,0.0529 0,0.0265 0,0.0265 0,0.0529 -0.0265,0.18521 -0.0529,0.37042 -0.0529,0.58209 v 0 0 h 0.66146 c 0,0.34396 0.0529,0.68791 0.18521,1.00541 l -0.60854,0.23813 c 0.13229,0.39687 0.34395,0.76729 0.635,1.08479 l 0.5027,-0.42333 c 0.21167,0.26458 0.47625,0.47625 0.7673,0.66146 l -0.3175,0.58208 c 0.1852,0.10583 0.37041,0.18521 0.55562,0.26458 0.21167,0.0794 0.39688,0.13229 0.60854,0.15875 l 0.10584,-0.66146 c 0.34395,0.0529 0.68791,0.0529 1.03187,0 l 0.10583,0.66146 v 0 0 c 0.3175,-0.0529 0.60855,-0.15875 0.87313,-0.29104 v 0 c 0.0265,0 0.0529,-0.0265 0.0529,-0.0265 0.0794,-0.0265 0.15875,-0.0794 0.21166,-0.10583 v 0 0 l -0.3175,-0.58208 c 0.15875,-0.0794 0.29104,-0.18521 0.42334,-0.29105 0.13229,-0.10583 0.26458,-0.23812 0.37041,-0.37041 l 0.50271,0.42333 c 0.0529,-0.0529 0.0794,-0.10583 0.13229,-0.15875 0.18521,-0.29104 0.37042,-0.58208 0.47625,-0.92604 z"
       id="path15"
       style="stroke-width:0.264583" /><polygon
       class="st1"
       points="139.5,65.3 139.5,59.2 144.8,62.3 "
       id="polygon15"
       transform="matrix(0.26458333,0,0,0.26458333,151.5368,137.75531)" /><polygon
       class="st1"
       points="148.3,52.8 148.3,54.6 145.8,54.6 145.8,57.1 148.3,57.1 148.3,58.9 145.8,58.9 145.8,61.4 148.3,61.4 148.3,63.2 145.8,63.2 145.8,65.7 148.2,65.7 148.2,67.5 145.8,67.5 145.8,70 153.3,70 153.3,50.3 163.1,50.3 163.1,42.9 136,42.9 136,50.3 145.8,50.3 145.8,52.8 "
       id="polygon16"
       transform="matrix(0.26458333,0,0,0.26458333,151.5368,137.75531)" /><g
       id="g8"
       inkscape:export-filename="w.png"
       inkscape:export-xdpi="3000"
       inkscape:export-ydpi="3000"
       transform="translate(12.221805,-61.193705)"><path
         style="fill:#005a9c;stroke-width:0.264583"
         d="m 155.34039,228.98349 5.1e-4,-0.007 -0.004,0.007 z"
         id="path3" /><path
         style="fill:#005a9c;stroke-width:0.264583"
         d="m 145.67276,224.37964 c -0.68792,0 -1.29666,0.34386 -1.66708,0.9524 -0.34396,0.60854 -0.34396,1.32322 0,1.90531 l 4.33927,7.54062 c 0.34396,0.60854 0.95271,0.9524 1.66708,0.9524 0.68792,0 1.29614,-0.34386 1.66656,-0.9524 l 2.11667,-3.65145 1.13171,-1.99265 -5.1e-4,-5.1e-4 0.0439,-0.076 0.0419,-0.0739 h 5.2e-4 l 0.37,-0.6413 v -5.2e-4 c 0.97896,-1.71317 0.97906,-2.42755 0.6351,-3.00963 -0.34395,-0.60854 -0.95271,-0.9524 -1.66708,-0.9524 z"
         id="path1-13" /><polygon
         class="st1"
         points="46.5,42.8 35.9,42.8 25.9,42.8 36.2,60.7 41.2,52 46.2,60.7 56.5,42.8 "
         id="polygon12-8"
         transform="matrix(0.26458333,0,0,0.26458333,139.11098,215.14577)"
         style="fill:#ffffff" /><path
         class="st0"
         d="m 150.01181,227.44889 c 0.55563,0 1.00542,0.29105 1.27,0.74084 l 0.42334,-0.23813 c -0.34396,-0.58208 -0.97896,-0.97896 -1.69334,-0.97896 -0.71437,0 -1.34937,0.39688 -1.69333,0.97896 l 0.42333,0.23813 c 0.23813,-0.44979 0.71438,-0.74084 1.27,-0.74084 z"
         id="path13-4"
         style="fill:#005a9c;stroke-width:0.264583" /><path
         class="st0"
         d="m 150.01181,228.42785 c 0.18521,0 0.34396,0.10584 0.42334,0.23813 l 0.42333,-0.23813 c -0.15875,-0.29104 -0.47625,-0.50271 -0.84667,-0.50271 -0.37041,0 -0.66146,0.21167 -0.84666,0.50271 l 0.42333,0.23813 c 0.0794,-0.13229 0.23812,-0.23813 0.42333,-0.23813 z"
         id="path14-8"
         style="fill:#005a9c;stroke-width:0.264583" /></g><g
       id="g7"
       inkscape:export-filename="o.png"
       inkscape:export-xdpi="3000"
       inkscape:export-ydpi="3000"
       transform="translate(1.791914,-58.676145)"><ellipse
         style="fill:#005a9c;fill-opacity:1;stroke-width:0.503309"
         id="path6"
         cx="175.43816"
         cy="227.42018"
         rx="5.7032475"
         ry="5.7103801" /><path
         style="fill:#005a9c;stroke-width:0.264583"
         d="m 175.42237,221.73892 c -2.75166,0 -5.07991,1.98447 -5.58261,4.60385 -0.1599,0.72315 -0.10613,1.41986 0,2.14303 0.5027,2.61938 2.80449,4.60385 5.58261,4.60385 2.75167,0 5.08041,-1.98447 5.58312,-4.60385 v -2.14303 c -0.50271,-2.61938 -2.80499,-4.60385 -5.58312,-4.60385 z"
         id="path2"
         sodipodi:nodetypes="sccsccs" /><path
         class="st1"
         d="m 178.78277,228.69755 v 0 l -0.60854,-0.23813 c 0.10583,-0.3175 0.18521,-0.66145 0.18521,-1.00541 v 0 h 0.66146 c 0,-0.15875 -0.006,-0.28794 -0.006,-0.44669 0,-0.0529 -0.0114,-0.20092 -0.0286,-0.29063 -0.041,-0.20754 -0.12443,-0.32102 -0.17735,-0.50622 l -0.52917,0.1852 -0.0794,0.0265 c -0.0794,-0.18521 -0.15875,-0.37041 -0.26458,-0.55562 -0.0794,-0.10584 -0.15875,-0.23813 -0.23813,-0.34396 l 0.50271,-0.42333 c -0.13229,-0.15875 -0.29104,-0.3175 -0.44979,-0.4498 -0.15875,-0.13229 -0.34396,-0.26458 -0.50271,-0.37041 l -0.3175,0.58208 c -0.13229,-0.0794 -0.26458,-0.13229 -0.39688,-0.18521 -0.1852,-0.0794 -0.37041,-0.13229 -0.55562,-0.15875 l 0.0996,-0.60875 c -0.23874,-0.0277 -0.47005,-0.0262 -0.68171,-0.0262 h -0.15875 c -0.15875,0 -0.3175,0.0265 -0.4498,0.0529 l 0.10584,0.66146 v 0 c -0.34396,0.0529 -0.66146,0.18521 -0.9525,0.34396 l -0.3175,-0.58209 c -0.37042,0.21167 -0.68792,0.47625 -0.9525,0.79375 l 0.50271,0.42334 c -0.21167,0.26458 -0.39688,0.55562 -0.50271,0.87312 l -0.60854,-0.23812 v 0 0 c -0.0688,0.21921 -0.13196,0.44427 -0.18525,0.66142 -0.0257,0.14848 -0.0529,0.37042 -0.0529,0.58209 v 0 0 h 0.66146 c 0,0.34396 0.0529,0.68791 0.18521,1.00541 l -0.60854,0.23813 c 0.13229,0.39687 0.34395,0.76729 0.635,1.08479 l 0.5027,-0.42333 c 0.21167,0.26458 0.47625,0.47625 0.7673,0.66146 l -0.3175,0.58208 c 0.1852,0.10583 0.37041,0.18521 0.55562,0.26458 0.21167,0.0794 0.39688,0.13229 0.60854,0.15875 l 0.10584,-0.66146 c 0.34395,0.0529 0.68791,0.0529 1.03187,0 l 0.10583,0.66146 v 0 0 c 0.3175,-0.0529 0.60855,-0.15875 0.87313,-0.29104 v 0 c 0.0265,0 0.0529,-0.0265 0.0529,-0.0265 0.0794,-0.0265 0.15875,-0.0794 0.21166,-0.10583 v 0 0 l -0.3175,-0.58208 c 0.15875,-0.0794 0.29104,-0.18521 0.42334,-0.29105 0.13229,-0.10583 0.26458,-0.23812 0.37041,-0.37041 l 0.50271,0.42333 c 0.0529,-0.0529 0.0794,-0.10583 0.13229,-0.15875 0.18521,-0.29104 0.37042,-0.58208 0.47625,-0.92604 z"
         id="path15-0"
         style="fill:#ffffff;stroke-width:0.264583"
         sodipodi:nodetypes="cccsccscccccccscccccssccscccccccszscccccccccccccccssscscccsccccc" /></g><g
       id="g9"
       inkscape:export-filename="t.png"
       inkscape:export-xdpi="3000"
       inkscape:export-ydpi="3000"
       transform="translate(1.1325531,-58.136668)"><path
         style="fill:#005a9c;stroke-width:0.264583"
         d="m 186.74674,221.73892 c -1.42875,0 -2.56625,1.16447 -2.56625,2.56677 v 1.1405 0.89658 2.14303 0.94309 1.09451 c 0,1.42875 1.16396,2.56625 2.56625,2.56625 h 6.19135 c 1.42875,0 2.56626,-1.16395 2.56626,-2.56625 v -6.19136 c 0,-1.42875 -1.16397,-2.59312 -2.56626,-2.59312 z"
         id="path4" /><polygon
         class="st1"
         points="139.5,65.3 139.5,59.2 144.8,62.3 "
         id="polygon15-4"
         transform="matrix(0.26458333,0,0,0.26458333,150.26069,212.50505)"
         style="fill:#ffffff" /><polygon
         class="st1"
         points="148.3,63.2 145.8,63.2 145.8,65.7 148.2,65.7 148.2,67.5 145.8,67.5 145.8,70 153.3,70 153.3,50.3 163.1,50.3 163.1,42.9 136,42.9 136,50.3 145.8,50.3 145.8,52.8 148.3,52.8 148.3,54.6 145.8,54.6 145.8,57.1 148.3,57.1 148.3,58.9 145.8,58.9 145.8,61.4 148.3,61.4 "
         id="polygon16-6"
         transform="matrix(0.26458333,0,0,0.26458333,150.26069,212.50505)"
         style="fill:#ffffff" /></g><rect
       style="fill:#005a9c;fill-opacity:1;stroke-width:0.0624221"
       id="rect9"
       width="5.0759296"
       height="1.6958517"
       x="168.34099"
       y="175.88283"
       ry="0.84792584"
       inkscape:export-filename="line.png"
       inkscape:export-xdpi="600"
       inkscape:export-ydpi="600" /></g><style
     type="text/css"
     id="style191">
	.st0{fill:#005A9C;}
	.st1{fill:#FFFFFF;}
</style><style
     type="text/css"
     id="style1">
	.st0{fill:#005A9C;}
	.st1{fill:#FFFFFF;}
</style></svg>
