<?xml version="1.0" encoding="UTF-8" standalone="no"?>
<!-- Created with Inkscape (http://www.inkscape.org/) -->

<svg
   xmlns:dc="http://purl.org/dc/elements/1.1/"
   xmlns:cc="http://creativecommons.org/ns#"
   xmlns:rdf="http://www.w3.org/1999/02/22-rdf-syntax-ns#"
   xmlns:svg="http://www.w3.org/2000/svg"
   xmlns="http://www.w3.org/2000/svg"
   xmlns:sodipodi="http://sodipodi.sourceforge.net/DTD/sodipodi-0.dtd"
   xmlns:inkscape="http://www.inkscape.org/namespaces/inkscape"
   width="43.314056mm"
   height="12.107333mm"
   viewBox="0 0 153.475 42.899999"
   id="svg2"
   version="1.1"
   inkscape:version="0.91 r13725"
   sodipodi:docname="logo-mini.svg">
  <defs
     id="defs4" />
  <sodipodi:namedview
     id="base"
     pagecolor="#ffffff"
     bordercolor="#666666"
     borderopacity="1.0"
     inkscape:pageopacity="0.0"
     inkscape:pageshadow="2"
     inkscape:zoom="0.98994949"
     inkscape:cx="-124.53348"
     inkscape:cy="-27.370394"
     inkscape:document-units="px"
     inkscape:current-layer="g4183"
     showgrid="false"
     inkscape:window-width="1350"
     inkscape:window-height="752"
     inkscape:window-x="217"
     inkscape:window-y="260"
     inkscape:window-maximized="0"
     fit-margin-top="0"
     fit-margin-left="0"
     fit-margin-right="0"
     fit-margin-bottom="0" />
  <metadata
     id="metadata7">
    <rdf:RDF>
      <cc:Work
         rdf:about="">
        <dc:format>image/svg+xml</dc:format>
        <dc:type
           rdf:resource="http://purl.org/dc/dcmitype/StillImage" />
        <dc:title></dc:title>
      </cc:Work>
    </rdf:RDF>
  </metadata>
  <g
     inkscape:label="Layer 1"
     inkscape:groupmode="layer"
     id="layer1"
     transform="translate(-214.69107,-342.34078)">
    <g
       id="g4183"
       transform="translate(197.16607,307.44078)">
      <path
         id="path4137"
         d="m 161.3,34.9 -23.4,0 c -5.4,0 -9.7,4.4 -9.7,9.7 l 0,7.7 -12,0 C 114.3,42.4 105.6,34.9 95.1,34.9 84.7,34.9 75.9,42.4 74,52.3 l -13.9,0 3.8,-6.6 c 1.3,-2.3 1.3,-5 0,-7.2 -1.3,-2.3 -3.6,-3.6 -6.3,-3.6 l -32.8,0 c -2.6,0 -4.9,1.3 -6.3,3.6 -1.3,2.3 -1.3,5 0,7.2 l 16.4,28.5 c 1.3,2.3 3.6,3.6 6.3,3.6 l 0,0 c 2.6,0 4.9,-1.3 6.3,-3.6 l 8,-13.8 18.5,0 c 1.9,9.9 10.6,17.4 21.1,17.4 10.4,0 19.2,-7.5 21.1,-17.4 l 12,0 0,7.7 c 0,5.4 4.4,9.7 9.7,9.7 l 23.4,0 c 5.4,0 9.7,-4.4 9.7,-9.7 l 0,-23.4 c 0,-5.4 -4.4,-9.8 -9.7,-9.8 z"
         inkscape:connector-curvature="0"
         style="fill:#4a7b7c" />
      <polygon
         id="polygon4165"
         points="46.5,42.8 35.9,42.8 25.9,42.8 36.2,60.7 41.2,52 46.2,60.7 56.5,42.8 "
         style="fill:#ffffff" />
      <path
         id="path4167"
         d="m 41.2,46.5 c 2.1,0 3.8,1.1 4.8,2.8 l 1.6,-0.9 c -1.3,-2.2 -3.7,-3.7 -6.4,-3.7 -2.7,0 -5.1,1.5 -6.4,3.7 l 1.6,0.9 c 0.9,-1.7 2.7,-2.8 4.8,-2.8 z"
         inkscape:connector-curvature="0"
         style="fill:#4a7b7c" />
      <path
         id="path4169"
         d="m 41.2,50.2 c 0.7,0 1.3,0.4 1.6,0.9 l 1.6,-0.9 c -0.6,-1.1 -1.8,-1.9 -3.2,-1.9 -1.4,0 -2.5,0.8 -3.2,1.9 l 1.6,0.9 c 0.3,-0.5 0.9,-0.9 1.6,-0.9 z"
         inkscape:connector-curvature="0"
         style="fill:#4a7b7c" />
      <path
         id="path4171"
         d="m 107.8,61.2 0,0 -2.3,-0.9 c 0.4,-1.2 0.7,-2.5 0.7,-3.8 l 0,0 2.5,0 c 0,-0.6 -0.1,-1.1 -0.1,-1.7 0,-0.2 0,-0.4 -0.1,-0.7 -0.1,-0.8 -0.4,-1.6 -0.6,-2.3 l -2,0.7 -0.3,0.1 c -0.3,-0.7 -0.6,-1.4 -1,-2.1 -0.3,-0.4 -0.6,-0.9 -0.9,-1.3 l 1.9,-1.6 c -0.5,-0.6 -1.1,-1.2 -1.7,-1.7 -0.6,-0.5 -1.3,-1 -1.9,-1.4 l -1.2,2.2 c -0.5,-0.3 -1,-0.5 -1.5,-0.7 -0.7,-0.3 -1.4,-0.5 -2.1,-0.6 l 0.4,-2.5 c -1,0.2 -1.8,0.1 -2.6,0.1 -0.2,0 -0.4,0 -0.6,0 -0.6,0 -1.2,0.1 -1.7,0.2 l 0.4,2.5 0,0 c -1.3,0.2 -2.5,0.7 -3.6,1.3 l -1.2,-2.2 c -1.4,0.8 -2.6,1.8 -3.6,3 l 1.9,1.6 c -0.8,1 -1.5,2.1 -1.9,3.3 l -2.3,-0.9 c 0,0 0,0 0,0 l 0,0 c -0.2,0.7 -0.4,1.4 -0.6,2.1 0,0.1 0,0.2 -0.1,0.2 0,0.1 0,0.1 0,0.2 -0.1,0.7 -0.2,1.4 -0.2,2.2 l 0,0 c 0,0 0,0 0,0 l 2.5,0 c 0,1.3 0.2,2.6 0.7,3.8 l -2.3,0.9 c 0.5,1.5 1.3,2.9 2.4,4.1 l 1.9,-1.6 c 0.8,1 1.8,1.8 2.9,2.5 l -1.2,2.2 c 0.7,0.4 1.4,0.7 2.1,1 0.8,0.3 1.5,0.5 2.3,0.6 l 0.4,-2.5 c 1.3,0.2 2.6,0.2 3.9,0 l 0.4,2.5 0,0 0,0 c 1.2,-0.2 2.3,-0.6 3.3,-1.1 0,0 0,0 0,0 0.1,0 0.2,-0.1 0.2,-0.1 0.3,-0.1 0.6,-0.3 0.8,-0.4 l 0,0 0,0 -1.2,-2.2 c 0.6,-0.3 1.1,-0.7 1.6,-1.1 0.5,-0.4 1,-0.9 1.4,-1.4 l 1.9,1.6 c 0.2,-0.2 0.3,-0.4 0.5,-0.6 0.7,-1.1 1.4,-2.2 1.8,-3.5 l 0,0 z"
         inkscape:connector-curvature="0"
         style="fill:#ffffff" />
      <polygon
         id="polygon4173"
         points="139.5,59.2 144.8,62.3 139.5,65.3 "
         style="fill:#ffffff" />
      <polygon
         id="polygon4175"
         points="148.3,57.1 148.3,58.9 145.8,58.9 145.8,61.4 148.3,61.4 148.3,63.2 145.8,63.2 145.8,65.7 148.2,65.7 148.2,67.5 145.8,67.5 145.8,70 153.3,70 153.3,50.3 163.1,50.3 163.1,42.9 136,42.9 136,50.3 145.8,50.3 145.8,52.8 148.3,52.8 148.3,54.6 145.8,54.6 145.8,57.1 "
         style="fill:#ffffff" />
    </g>
  </g>
</svg>
