<?xml version="1.0" encoding="utf-8"?>
<!-- Generator: Adobe Illustrator 19.2.1, SVG Export Plug-In . SVG Version: 6.00 Build 0)  -->
<svg version="1.2" baseProfile="tiny" id="Layer_1" xmlns="http://www.w3.org/2000/svg" xmlns:xlink="http://www.w3.org/1999/xlink"
	 x="0px" y="0px" viewBox="0 0 188.5 112.7" xml:space="preserve">
<path fill="#4A7B7C" d="M161.3,34.9h-23.4c-5.4,0-9.7,4.4-9.7,9.7v7.7h-12c-1.9-9.9-10.6-17.4-21.1-17.4c-10.4,0-19.2,7.5-21.1,17.4
	H60.1l3.8-6.6c1.3-2.3,1.3-5,0-7.2c-1.3-2.3-3.6-3.6-6.3-3.6H24.8c-2.6,0-4.9,1.3-6.3,3.6c-1.3,2.3-1.3,5,0,7.2l16.4,28.5
	c1.3,2.3,3.6,3.6,6.3,3.6h0c2.6,0,4.9-1.3,6.3-3.6l8-13.8H74c1.9,9.9,10.6,17.4,21.1,17.4c10.4,0,19.2-7.5,21.1-17.4h12v7.7
	c0,5.4,4.4,9.7,9.7,9.7h23.4c5.4,0,9.7-4.4,9.7-9.7V44.7C171,39.3,166.6,34.9,161.3,34.9z"/>
<g>
	<path fill="#4A7B7C" d="M70.5,23c-0.2,0.5-0.6,0.8-1.1,0.8c-0.5,0-1-0.3-1.1-0.8l-2-7.1l-2,7.1c-0.1,0.5-0.6,0.8-1.1,0.8
		s-1-0.4-1.1-0.8c-0.4-1.2-3.6-10.7-3.6-11.3c0-0.7,0.5-1.2,1.2-1.2c0.5,0,1,0.4,1.2,0.8l2.4,7.3l2.1-7.3c0.1-0.5,0.6-0.8,1.1-0.8
		c0.5,0,1,0.4,1.1,0.8l2.1,7.3l2.3-7.3c0.2-0.5,0.6-0.8,1.1-0.8c0.7,0,1.2,0.5,1.2,1.2C74.1,12.3,70.9,21.8,70.5,23z"/>
	<path fill="#4A7B7C" d="M84.7,23.7c-7.4,0-7.4,0-7.4,0c-0.7,0-1.3-0.6-1.3-1.3V12c0-0.7,0.6-1.3,1.3-1.3h7.1c0.7,0,1.2,0.5,1.2,1.2
		c0,0.7-0.6,1.2-1.2,1.2h-5.8v2.8h3.2c0.7,0,1.2,0.5,1.2,1.2c0,0.7-0.5,1.2-1.2,1.2h-3.2v2.9h6.1c0.7,0,1.2,0.6,1.2,1.2
		C86,23.2,85.4,23.7,84.7,23.7z"/>
	<path fill="#4A7B7C" d="M94.1,23.7h-4.6c-0.7,0-1.3-0.6-1.3-1.3V12c0-0.7,0.6-1.3,1.3-1.3H94c2.7,0,4.2,1.3,4.2,3.2
		c0,1.3-0.7,2.4-1.7,2.9c1.6,0.5,2.4,1.8,2.4,3.3C98.9,22.1,97.1,23.7,94.1,23.7z M94.2,13.1h-3.4v2.6h3.4c0.9,0,1.4-0.6,1.4-1.3
		S95.2,13.1,94.2,13.1z M94.5,18h-3.7v3.3h3.7c1.3,0,1.8-0.9,1.8-1.7C96.3,18.9,95.8,18,94.5,18z"/>
	<path fill="#4A7B7C" d="M112.9,23.9c-3.7,0-6.7-3-6.7-6.7s2.9-6.7,6.7-6.7s6.6,3,6.6,6.7S116.7,23.9,112.9,23.9z M112.9,12.9
		c-2.4,0-4.1,1.9-4.1,4.3c0,2.4,1.6,4.3,4.1,4.3s4.1-1.9,4.1-4.3C117,14.8,115.4,12.9,112.9,12.9z"/>
	<path fill="#4A7B7C" d="M130.6,13.1h-5.9v2.8h3.4c0.7,0,1.2,0.5,1.2,1.2c0,0.7-0.5,1.2-1.2,1.2h-3.4v4.2c0,0.7-0.6,1.3-1.3,1.3
		s-1.3-0.6-1.3-1.3V12c0-0.7,0.6-1.3,1.3-1.3h7.2c0.7,0,1.2,0.5,1.2,1.2C131.8,12.6,131.3,13.1,130.6,13.1z"/>
</g>
<g>
	<path fill="#4A7B7C" d="M69,91.4h-3.6v9.4c0,0.7-0.6,1.3-1.3,1.3c-0.7,0-1.3-0.6-1.3-1.3v-9.4h-3.6c-0.7,0-1.2-0.5-1.2-1.2
		c0-0.7,0.5-1.2,1.2-1.2H69c0.7,0,1.2,0.5,1.2,1.2C70.2,90.9,69.7,91.4,69,91.4z"/>
	<path fill="#4A7B7C" d="M81.7,102.1c-0.7,0-1.3-0.6-1.3-1.3v-4.3h-5.9v4.3c0,0.7-0.6,1.3-1.3,1.3s-1.3-0.6-1.3-1.3V90.1
		c0-0.7,0.6-1.3,1.3-1.3s1.3,0.6,1.3,1.3V94h5.9v-3.9c0-0.7,0.6-1.3,1.3-1.3s1.3,0.6,1.3,1.3v10.7C83,101.5,82.4,102.1,81.7,102.1z"
		/>
	<path fill="#4A7B7C" d="M87.8,102.1c-0.7,0-1.3-0.6-1.3-1.3V90.1c0-0.7,0.6-1.3,1.3-1.3s1.3,0.6,1.3,1.3v10.7
		C89.1,101.5,88.5,102.1,87.8,102.1z"/>
	<path fill="#4A7B7C" d="M102.2,102.1c-0.4,0-0.7-0.2-0.9-0.4L95,93.4v7.5c0,0.7-0.6,1.2-1.2,1.2c-0.7,0-1.2-0.5-1.2-1.2V90
		c0-0.6,0.5-1.2,1.3-1.2c0.3,0,0.7,0.2,0.9,0.4l6.4,8.3V90c0-0.7,0.5-1.2,1.2-1.2s1.2,0.6,1.2,1.2v10.9
		C103.5,101.6,102.9,102.1,102.2,102.1z"/>
	<path fill="#4A7B7C" d="M117.9,99.9c-1.2,1.5-3.4,2.3-5.3,2.3c-3.7,0-6.7-3-6.7-6.7s2.9-6.7,6.7-6.7c1.6,0,3.2,0.4,4.4,1.5
		c0.3,0.3,0.4,0.5,0.4,0.9c0,0.7-0.5,1.2-1.2,1.2c-0.9,0-1.5-1.2-3.6-1.2c-2.5,0-4.1,2-4.1,4.3c0,2.4,1.6,4.3,4.1,4.3
		c1,0,2.3-0.3,3-1l0-1.8h-2.4c-0.6,0-1.2-0.5-1.2-1.2c0-0.6,0.5-1.2,1.2-1.2h3.7c0.7,0,1.3,0.6,1.3,1.3v3.2
		C118.2,99.5,118.1,99.7,117.9,99.9z"/>
	<path fill="#4A7B7C" d="M125.7,102.2c-1.3,0-5.6-0.7-5.6-2.4c0-0.6,0.5-1.2,1.2-1.2c0.2,0,0.4,0.1,0.6,0.2c1.3,0.7,2.4,1.1,3.9,1.1
		c0.9,0,2.8-0.2,2.8-1.4c0-2.4-7.8-1.1-7.8-6.1c0-2.9,2.9-3.6,5.2-3.6c1.2,0,3.2,0.3,4.3,0.8c0.4,0.2,0.8,0.6,0.8,1.1
		c0,0.7-0.6,1.2-1.2,1.2c-0.2,0-0.3,0-0.5-0.1c-1.1-0.4-2.1-0.6-3.3-0.6c-0.8,0-2.7,0-2.7,1.2c0,1.2,3.1,1.9,4,2.2
		c2,0.6,3.8,1.4,3.8,3.7C131.1,101.3,128.2,102.2,125.7,102.2z"/>
</g>
<polygon fill="#FFFFFF" points="56.5,42.8 46.5,42.8 35.9,42.8 25.9,42.8 36.2,60.7 41.2,52 46.2,60.7 "/>
<path fill="#4A7B7C" d="M41.2,46.5c2.1,0,3.8,1.1,4.8,2.8l1.6-0.9c-1.3-2.2-3.7-3.7-6.4-3.7s-5.1,1.5-6.4,3.7l1.6,0.9
	C37.3,47.6,39.1,46.5,41.2,46.5z"/>
<path fill="#4A7B7C" d="M41.2,50.2c0.7,0,1.3,0.4,1.6,0.9l1.6-0.9c-0.6-1.1-1.8-1.9-3.2-1.9c-1.4,0-2.5,0.8-3.2,1.9l1.6,0.9
	C39.9,50.6,40.5,50.2,41.2,50.2z"/>
<path fill="#FFFFFF" d="M107.8,61.2L107.8,61.2l-2.3-0.9c0.4-1.2,0.7-2.5,0.7-3.8h0h2.5c0-0.6-0.1-1.1-0.1-1.7c0-0.2,0-0.4-0.1-0.7
	c-0.1-0.8-0.4-1.6-0.6-2.3l-2,0.7l-0.3,0.1c-0.3-0.7-0.6-1.4-1-2.1c-0.3-0.4-0.6-0.9-0.9-1.3l1.9-1.6c-0.5-0.6-1.1-1.2-1.7-1.7
	c-0.6-0.5-1.3-1-1.9-1.4l-1.2,2.2c-0.5-0.3-1-0.5-1.5-0.7c-0.7-0.3-1.4-0.5-2.1-0.6l0.4-2.5C96.6,43.1,95.8,43,95,43
	c-0.2,0-0.4,0-0.6,0c-0.6,0-1.2,0.1-1.7,0.2l0.4,2.5l0,0c-1.3,0.2-2.5,0.7-3.6,1.3l-1.2-2.2c-1.4,0.8-2.6,1.8-3.6,3l1.9,1.6
	c-0.8,1-1.5,2.1-1.9,3.3l-2.3-0.9c0,0,0,0,0,0l0,0c-0.2,0.7-0.4,1.4-0.6,2.1c0,0.1,0,0.2-0.1,0.2c0,0.1,0,0.1,0,0.2
	c-0.1,0.7-0.2,1.4-0.2,2.2h0c0,0,0,0,0,0l2.5,0c0,1.3,0.2,2.6,0.7,3.8l-2.3,0.9c0.5,1.5,1.3,2.9,2.4,4.1l1.9-1.6
	c0.8,1,1.8,1.8,2.9,2.5l-1.2,2.2c0.7,0.4,1.4,0.7,2.1,1c0.8,0.3,1.5,0.5,2.3,0.6l0.4-2.5c1.3,0.2,2.6,0.2,3.9,0l0.4,2.5h0l0,0
	c1.2-0.2,2.3-0.6,3.3-1.1c0,0,0,0,0,0c0.1,0,0.2-0.1,0.2-0.1c0.3-0.1,0.6-0.3,0.8-0.4l0,0l0,0l-1.2-2.2c0.6-0.3,1.1-0.7,1.6-1.1
	c0.5-0.4,1-0.9,1.4-1.4l1.9,1.6c0.2-0.2,0.3-0.4,0.5-0.6C106.7,63.6,107.4,62.5,107.8,61.2L107.8,61.2z"/>
<polygon fill="#FFFFFF" points="144.8,62.3 139.5,65.3 139.5,59.2 "/>
<polygon fill="#FFFFFF" points="136,42.9 136,50.3 145.8,50.3 145.8,52.8 148.3,52.8 148.3,54.6 145.8,54.6 145.8,57.1 148.3,57.1 
	148.3,58.9 145.8,58.9 145.8,61.4 148.3,61.4 148.3,63.2 145.8,63.2 145.8,65.7 148.2,65.7 148.2,67.5 145.8,67.5 145.8,70 
	153.3,70 153.3,50.3 163.1,50.3 163.1,42.9 "/>
</svg>
