<?xml version="1.0" encoding="UTF-8" standalone="no"?>
<!-- Generator: Adobe Illustrator 23.0.6, SVG Export Plug-In . SVG Version: 6.00 Build 0)  -->

<svg
   xmlns:dc="http://purl.org/dc/elements/1.1/"
   xmlns:cc="http://creativecommons.org/ns#"
   xmlns:rdf="http://www.w3.org/1999/02/22-rdf-syntax-ns#"
   xmlns:svg="http://www.w3.org/2000/svg"
   xmlns="http://www.w3.org/2000/svg"
   xmlns:sodipodi="http://sodipodi.sourceforge.net/DTD/sodipodi-0.dtd"
   xmlns:inkscape="http://www.inkscape.org/namespaces/inkscape"
   version="1.1"
   id="Layer_1"
   x="0px"
   y="0px"
   viewBox="0 0 153.47501 42.900003"
   xml:space="preserve"
   inkscape:version="0.91 r13725"
   sodipodi:docname="logo-mini-blue.svg"
   width="153.47501"
   height="42.900002"><metadata
   id="metadata49"><rdf:RDF><cc:Work
       rdf:about=""><dc:format>image/svg+xml</dc:format><dc:type
         rdf:resource="http://purl.org/dc/dcmitype/StillImage" /><dc:title></dc:title></cc:Work></rdf:RDF></metadata><defs
   id="defs47" /><sodipodi:namedview
   pagecolor="#ffffff"
   bordercolor="#666666"
   borderopacity="1"
   objecttolerance="10"
   gridtolerance="10"
   guidetolerance="10"
   inkscape:pageopacity="0"
   inkscape:pageshadow="2"
   inkscape:window-width="2016"
   inkscape:window-height="788"
   id="namedview45"
   showgrid="false"
   inkscape:zoom="1.5702918"
   inkscape:cx="76.725"
   inkscape:cy="20.813177"
   inkscape:window-x="174"
   inkscape:window-y="166"
   inkscape:window-maximized="0"
   inkscape:current-layer="Layer_1"
   fit-margin-top="0"
   fit-margin-left="0"
   fit-margin-right="0"
   fit-margin-bottom="0" />
<style
   type="text/css"
   id="style3">
	.st0{fill:#005A9C;}
	.st1{fill:#FFFFFF;}
</style>
<path
   class="st0"
   d="m 143.775,0 -23.4,0 c -5.4,0 -9.7,4.4 -9.7,9.7 l 0,7.7 -12,0 C 96.775,7.5 88.075,0 77.575,0 c -10.4,0 -19.2,7.5 -21.1,17.4 l -13.9,0 3.8,-6.6 c 1.3,-2.3 1.3,-5 0,-7.2 -1.3,-2.3 -3.6,-3.6 -6.3,-3.6 l -32.8,0 c -2.6,0 -4.9,1.3 -6.3,3.6 -1.3,2.3 -1.3,5 0,7.2 l 16.4,28.5 c 1.3,2.3 3.6,3.6 6.3,3.6 l 0,0 c 2.6,0 4.9,-1.3 6.3,-3.6 l 8,-13.8 18.5,0 c 1.9,9.9 10.6,17.4 21.1,17.4 10.4,0 19.2,-7.5 21.1,-17.4 l 12,0 0,7.7 c 0,5.4 4.4,9.7 9.7,9.7 l 23.4,0 c 5.4,0 9.7,-4.4 9.7,-9.7 l 0,-23.4 c 0,-5.4 -4.4,-9.8 -9.7,-9.8 z"
   id="path5"
   inkscape:export-xdpi="90"
   inkscape:export-ydpi="90"
   inkscape:connector-curvature="0"
   style="fill:#005a9c" />


<polygon
   class="st1"
   points="25.9,42.8 36.2,60.7 41.2,52 46.2,60.7 56.5,42.8 46.5,42.8 35.9,42.8 "
   id="polygon33"
   inkscape:export-xdpi="90"
   inkscape:export-ydpi="90"
   style="fill:#ffffff"
   transform="translate(-17.525,-34.9)" />
<path
   class="st0"
   d="m 23.675,11.6 c 2.1,0 3.8,1.1 4.8,2.8 l 1.6,-0.9 c -1.3,-2.2 -3.7,-3.7 -6.4,-3.7 -2.7,0 -5.1,1.5 -6.4,3.7 l 1.6,0.9 c 0.9,-1.7 2.7,-2.8 4.8,-2.8 z"
   id="path35"
   inkscape:export-xdpi="90"
   inkscape:export-ydpi="90"
   inkscape:connector-curvature="0"
   style="fill:#005a9c" />
<path
   class="st0"
   d="m 23.675,15.3 c 0.7,0 1.3,0.4 1.6,0.9 l 1.6,-0.9 c -0.6,-1.1 -1.8,-1.9 -3.2,-1.9 -1.4,0 -2.5,0.8 -3.2,1.9 l 1.6,0.9 c 0.3,-0.5 0.9,-0.9 1.6,-0.9 z"
   id="path37"
   inkscape:export-xdpi="90"
   inkscape:export-ydpi="90"
   inkscape:connector-curvature="0"
   style="fill:#005a9c" />
<path
   class="st1"
   d="m 90.275,26.3 0,0 -2.3,-0.9 c 0.4,-1.2 0.7,-2.5 0.7,-3.8 l 0,0 2.5,0 c 0,-0.6 -0.1,-1.1 -0.1,-1.7 0,-0.2 0,-0.4 -0.1,-0.7 -0.1,-0.8 -0.4,-1.6 -0.6,-2.3 l -2,0.7 -0.3,0.1 c -0.3,-0.7 -0.6,-1.4 -1,-2.1 -0.3,-0.4 -0.6,-0.9 -0.9,-1.3 l 1.9,-1.6 c -0.5,-0.6 -1.1,-1.2 -1.7,-1.7 -0.6,-0.5 -1.3,-1 -1.9,-1.4 l -1.2,2.2 c -0.5,-0.3 -1,-0.5 -1.5,-0.7 -0.7,-0.3 -1.4,-0.5 -2.1,-0.6 l 0.4,-2.5 c -1,0.2 -1.8,0.1 -2.6,0.1 -0.2,0 -0.4,0 -0.6,0 -0.6,0 -1.2,0.1 -1.7,0.2 l 0.4,2.5 0,0 c -1.3,0.2 -2.5,0.7 -3.6,1.3 l -1.2,-2.2 c -1.4,0.8 -2.6,1.8 -3.6,3 l 1.9,1.6 c -0.8,1 -1.5,2.1 -1.9,3.3 l -2.3,-0.9 0,0 0,0 c -0.2,0.7 -0.4,1.4 -0.6,2.1 0,0.1 0,0.2 -0.1,0.2 0,0.1 0,0.1 0,0.2 -0.1,0.7 -0.2,1.4 -0.2,2.2 l 0,0 0,0 2.5,0 c 0,1.3 0.2,2.6 0.7,3.8 l -2.3,0.9 c 0.5,1.5 1.3,2.9 2.4,4.1 l 1.9,-1.6 c 0.8,1 1.8,1.8 2.9,2.5 l -1.2,2.2 c 0.7,0.4 1.4,0.7 2.1,1 0.8,0.3 1.5,0.5 2.3,0.6 l 0.4,-2.5 c 1.3,0.2 2.6,0.2 3.9,0 l 0.4,2.5 0,0 0,0 c 1.2,-0.2 2.3,-0.6 3.3,-1.1 l 0,0 c 0.1,0 0.2,-0.1 0.2,-0.1 0.3,-0.1 0.6,-0.3 0.8,-0.4 l 0,0 0,0 -1.2,-2.2 c 0.6,-0.3 1.1,-0.7 1.6,-1.1 0.5,-0.4 1,-0.9 1.4,-1.4 l 1.9,1.6 c 0.2,-0.2 0.3,-0.4 0.5,-0.6 0.7,-1.1 1.4,-2.2 1.8,-3.5 l 0,0 z"
   id="path39"
   inkscape:export-xdpi="90"
   inkscape:export-ydpi="90"
   inkscape:connector-curvature="0"
   style="fill:#ffffff" />
<polygon
   class="st1"
   points="144.8,62.3 139.5,65.3 139.5,59.2 "
   id="polygon41"
   inkscape:export-xdpi="90"
   inkscape:export-ydpi="90"
   style="fill:#ffffff"
   transform="translate(-17.525,-34.9)" />
<polygon
   class="st1"
   points="145.8,52.8 148.3,52.8 148.3,54.6 145.8,54.6 145.8,57.1 148.3,57.1 148.3,58.9 145.8,58.9 145.8,61.4 148.3,61.4 148.3,63.2 145.8,63.2 145.8,65.7 148.2,65.7 148.2,67.5 145.8,67.5 145.8,70 153.3,70 153.3,50.3 163.1,50.3 163.1,42.9 136,42.9 136,50.3 145.8,50.3 "
   id="polygon43"
   inkscape:export-xdpi="90"
   inkscape:export-ydpi="90"
   style="fill:#ffffff"
   transform="translate(-17.525,-34.9)" />
</svg>